<svg width="64" height="64" viewBox="0 0 64 64" fill="none" xmlns="http://www.w3.org/2000/svg">
<circle cx="32" cy="32" r="32" fill="#317AF5" fill-opacity="0.2"/>
<circle cx="32" cy="32" r="28" fill="#317AF5"/>
<path d="M19.012 35C20.538 35 21.728 34.538 22.596 33.614C23.478 32.69 23.912 31.43 23.912 29.848C23.912 28.252 23.478 26.992 22.624 26.054C21.77 25.116 20.622 24.654 19.152 24.654H15.302V35H19.012ZM16.702 25.984H19.068C20.132 25.984 20.958 26.348 21.56 27.062C22.162 27.776 22.456 28.686 22.456 29.806C22.456 30.94 22.162 31.864 21.56 32.592C20.958 33.306 20.132 33.67 19.068 33.67H16.702V25.984ZM27.4894 35V31.024C27.4894 29.414 28.3574 28.588 29.5474 28.588C29.7994 28.588 30.0654 28.63 30.3314 28.714L30.4574 27.412C30.1634 27.342 29.8694 27.3 29.5754 27.3C28.5814 27.3 27.8534 27.734 27.4194 28.602V27.496H26.1454V35H27.4894ZM37.6673 28.588C36.9673 27.734 36.0853 27.314 35.0213 27.314C33.9433 27.314 33.0473 27.678 32.3333 28.42C31.6193 29.148 31.2693 30.072 31.2693 31.192C31.2693 32.326 31.6193 33.264 32.3333 34.034C33.0473 34.804 33.9433 35.182 35.0213 35.182C36.1133 35.182 36.9953 34.762 37.6673 33.936V35H38.9553V27.496H37.6673V28.588ZM37.7513 31.234C37.7513 32.004 37.5133 32.648 37.0373 33.166C36.5613 33.684 35.9453 33.95 35.1753 33.95C34.4053 33.95 33.7893 33.684 33.3273 33.166C32.8653 32.648 32.6273 32.004 32.6273 31.248C32.6273 30.492 32.8653 29.848 33.3273 29.33C33.7893 28.812 34.4053 28.546 35.1753 28.546C35.9453 28.546 36.5613 28.812 37.0373 29.33C37.5133 29.848 37.7513 30.492 37.7513 31.234ZM47.4779 28.476C46.8059 27.706 45.9519 27.314 44.9159 27.314C43.8379 27.314 42.9279 27.678 42.1859 28.42C41.4439 29.148 41.0799 30.058 41.0799 31.15C41.0799 32.256 41.4439 33.166 42.1579 33.908C42.8719 34.65 43.7679 35.014 44.8459 35.014C45.9239 35.014 46.8059 34.622 47.4779 33.838V34.454C47.4779 35.196 47.2399 35.798 46.7499 36.26C46.2599 36.736 45.6019 36.974 44.7759 36.974C43.8099 36.974 42.9139 36.666 42.1019 36.064L41.4719 37.128C42.4659 37.842 43.5719 38.192 44.7899 38.192C46.0079 38.192 46.9879 37.828 47.7159 37.114C48.4439 36.4 48.8079 35.448 48.8079 34.23V27.496H47.4779V28.476ZM43.1659 33.054C42.6759 32.55 42.4379 31.92 42.4379 31.164C42.4379 30.408 42.6759 29.778 43.1659 29.288C43.6559 28.784 44.2579 28.532 44.9999 28.532C45.7419 28.532 46.3439 28.784 46.8339 29.288C47.3239 29.778 47.5619 30.408 47.5619 31.164C47.5619 31.92 47.3239 32.55 46.8339 33.054C46.3439 33.558 45.7419 33.81 44.9999 33.81C44.2579 33.81 43.6559 33.558 43.1659 33.054Z" fill="white"/>
</svg>
