<svg width="72" height="56" viewBox="0 0 72 56" fill="none" xmlns="http://www.w3.org/2000/svg">
<ellipse cx="36" cy="28" rx="36" ry="28" fill="#317AF5" fill-opacity="0.4"/>
<ellipse cx="36" cy="28" rx="32" ry="24" fill="#317AF5"/>
<path d="M23.012 31C24.538 31 25.728 30.538 26.596 29.614C27.478 28.69 27.912 27.43 27.912 25.848C27.912 24.252 27.478 22.992 26.624 22.054C25.77 21.116 24.622 20.654 23.152 20.654H19.302V31H23.012ZM20.702 21.984H23.068C24.132 21.984 24.958 22.348 25.56 23.062C26.162 23.776 26.456 24.686 26.456 25.806C26.456 26.94 26.162 27.864 25.56 28.592C24.958 29.306 24.132 29.67 23.068 29.67H20.702V21.984ZM31.4894 31V27.024C31.4894 25.414 32.3574 24.588 33.5474 24.588C33.7994 24.588 34.0654 24.63 34.3314 24.714L34.4574 23.412C34.1634 23.342 33.8694 23.3 33.5754 23.3C32.5814 23.3 31.8534 23.734 31.4194 24.602V23.496H30.1454V31H31.4894ZM41.6673 24.588C40.9673 23.734 40.0853 23.314 39.0213 23.314C37.9433 23.314 37.0473 23.678 36.3333 24.42C35.6193 25.148 35.2693 26.072 35.2693 27.192C35.2693 28.326 35.6193 29.264 36.3333 30.034C37.0473 30.804 37.9433 31.182 39.0213 31.182C40.1133 31.182 40.9953 30.762 41.6673 29.936V31H42.9553V23.496H41.6673V24.588ZM41.7513 27.234C41.7513 28.004 41.5133 28.648 41.0373 29.166C40.5613 29.684 39.9453 29.95 39.1753 29.95C38.4053 29.95 37.7893 29.684 37.3273 29.166C36.8653 28.648 36.6273 28.004 36.6273 27.248C36.6273 26.492 36.8653 25.848 37.3273 25.33C37.7893 24.812 38.4053 24.546 39.1753 24.546C39.9453 24.546 40.5613 24.812 41.0373 25.33C41.5133 25.848 41.7513 26.492 41.7513 27.234ZM51.4779 24.476C50.8059 23.706 49.9519 23.314 48.9159 23.314C47.8379 23.314 46.9279 23.678 46.1859 24.42C45.4439 25.148 45.0799 26.058 45.0799 27.15C45.0799 28.256 45.4439 29.166 46.1579 29.908C46.8719 30.65 47.7679 31.014 48.8459 31.014C49.9239 31.014 50.8059 30.622 51.4779 29.838V30.454C51.4779 31.196 51.2399 31.798 50.7499 32.26C50.2599 32.736 49.6019 32.974 48.7759 32.974C47.8099 32.974 46.9139 32.666 46.1019 32.064L45.4719 33.128C46.4659 33.842 47.5719 34.192 48.7899 34.192C50.0079 34.192 50.9879 33.828 51.7159 33.114C52.4439 32.4 52.8079 31.448 52.8079 30.23V23.496H51.4779V24.476ZM47.1659 29.054C46.6759 28.55 46.4379 27.92 46.4379 27.164C46.4379 26.408 46.6759 25.778 47.1659 25.288C47.6559 24.784 48.2579 24.532 48.9999 24.532C49.7419 24.532 50.3439 24.784 50.8339 25.288C51.3239 25.778 51.5619 26.408 51.5619 27.164C51.5619 27.92 51.3239 28.55 50.8339 29.054C50.3439 29.558 49.7419 29.81 48.9999 29.81C48.2579 29.81 47.6559 29.558 47.1659 29.054Z" fill="white"/>
</svg>
